<mxfile host="65bd71144e">
    <diagram id="xxtGg2wU7yqez92tXx-T" name="Sistema de Gestão de Eventos">
        <mxGraphModel dx="1911" dy="779" grid="1" gridSize="10" guides="1" tooltips="1" connect="1" arrows="1" fold="1" page="1" pageScale="1" pageWidth="827" pageHeight="1169" math="0" shadow="0">
            <root>
                <mxCell id="0"/>
                <mxCell id="1" parent="0"/>
                <mxCell id="5" value="" style="html=1;endArrow=none;endFill=0;entryX=0;entryY=0.5;entryDx=0;entryDy=0;" parent="1" source="2" target="6" edge="1">
                    <mxGeometry relative="1" as="geometry">
                        <mxPoint x="190" y="600" as="targetPoint"/>
                    </mxGeometry>
                </mxCell>
                <mxCell id="20" style="edgeStyle=none;html=1;exitX=0;exitY=0;exitDx=0;exitDy=0;fontColor=#000000;endArrow=none;endFill=0;entryX=1;entryY=1;entryDx=0;entryDy=0;" parent="1" source="2" target="21" edge="1">
                    <mxGeometry relative="1" as="geometry">
                        <mxPoint x="-10" y="480" as="targetPoint"/>
                    </mxGeometry>
                </mxCell>
                <mxCell id="24" style="edgeStyle=none;html=1;exitX=0.5;exitY=0;exitDx=0;exitDy=0;fontColor=#000000;endArrow=none;endFill=0;" parent="1" source="2" target="25" edge="1">
                    <mxGeometry relative="1" as="geometry">
                        <mxPoint x="30" y="385" as="targetPoint"/>
                        <mxPoint x="135" y="585" as="sourcePoint"/>
                    </mxGeometry>
                </mxCell>
                <mxCell id="27" style="edgeStyle=none;html=1;exitX=0;exitY=1;exitDx=0;exitDy=0;fontColor=#000000;endArrow=none;endFill=0;" parent="1" source="2" target="28" edge="1">
                    <mxGeometry relative="1" as="geometry">
                        <mxPoint x="-40" y="700" as="targetPoint"/>
                    </mxGeometry>
                </mxCell>
                <mxCell id="30" style="edgeStyle=none;html=1;exitX=0.5;exitY=1;exitDx=0;exitDy=0;fontColor=#000000;endArrow=none;endFill=0;" parent="1" source="2" target="31" edge="1">
                    <mxGeometry relative="1" as="geometry">
                        <mxPoint x="20.315789473684163" y="720" as="targetPoint"/>
                    </mxGeometry>
                </mxCell>
                <mxCell id="YFclPP9cMdC0-PAfr8tu-66" style="edgeStyle=none;shape=connector;rounded=1;html=1;exitX=0;exitY=0.5;exitDx=0;exitDy=0;labelBackgroundColor=default;strokeColor=default;fontFamily=Helvetica;fontSize=11;fontColor=#000000;endArrow=none;endFill=0;" parent="1" source="2" target="YFclPP9cMdC0-PAfr8tu-67" edge="1">
                    <mxGeometry relative="1" as="geometry">
                        <mxPoint x="-100" y="599.6666666666665" as="targetPoint"/>
                    </mxGeometry>
                </mxCell>
                <mxCell id="67" style="edgeStyle=none;html=1;exitX=0.75;exitY=0;exitDx=0;exitDy=0;fontColor=#000000;endArrow=none;endFill=0;" parent="1" source="2" target="68" edge="1">
                    <mxGeometry relative="1" as="geometry">
                        <mxPoint x="140" y="310" as="targetPoint"/>
                    </mxGeometry>
                </mxCell>
                <mxCell id="69" style="edgeStyle=none;html=1;exitX=0.25;exitY=1;exitDx=0;exitDy=0;fontColor=#000000;endArrow=none;endFill=0;" parent="1" source="2" target="70" edge="1">
                    <mxGeometry relative="1" as="geometry">
                        <mxPoint x="-70" y="930" as="targetPoint"/>
                    </mxGeometry>
                </mxCell>
                <mxCell id="2" value="" style="rounded=0;whiteSpace=wrap;html=1;fillColor=#f9f7ed;strokeColor=none;" parent="1" vertex="1">
                    <mxGeometry x="-10" y="570" width="120" height="60" as="geometry"/>
                </mxCell>
                <mxCell id="12" value="" style="edgeStyle=none;html=1;fontColor=#000000;endArrow=none;endFill=0;startArrow=none;" parent="1" source="16" target="11" edge="1">
                    <mxGeometry relative="1" as="geometry"/>
                </mxCell>
                <mxCell id="35" style="edgeStyle=none;html=1;exitX=0;exitY=0;exitDx=0;exitDy=0;fontColor=#000000;endArrow=none;endFill=0;" parent="1" source="6" target="36" edge="1">
                    <mxGeometry relative="1" as="geometry">
                        <mxPoint x="270" y="500" as="targetPoint"/>
                    </mxGeometry>
                </mxCell>
                <mxCell id="38" style="edgeStyle=none;html=1;exitX=1;exitY=0;exitDx=0;exitDy=0;fontColor=#FFFFFF;endArrow=none;endFill=0;" parent="1" source="6" target="39" edge="1">
                    <mxGeometry relative="1" as="geometry">
                        <mxPoint x="440" y="460" as="targetPoint"/>
                    </mxGeometry>
                </mxCell>
                <mxCell id="41" style="edgeStyle=none;html=1;exitX=0;exitY=1;exitDx=0;exitDy=0;fontColor=#000000;endArrow=none;endFill=0;" parent="1" source="6" target="42" edge="1">
                    <mxGeometry relative="1" as="geometry">
                        <mxPoint x="460" y="740" as="targetPoint"/>
                    </mxGeometry>
                </mxCell>
                <mxCell id="52" style="edgeStyle=none;html=1;exitX=1;exitY=1;exitDx=0;exitDy=0;fontColor=#000000;endArrow=none;endFill=0;" parent="1" source="6" target="53" edge="1">
                    <mxGeometry relative="1" as="geometry">
                        <mxPoint x="390" y="700" as="targetPoint"/>
                    </mxGeometry>
                </mxCell>
                <mxCell id="6" value="" style="rhombus;whiteSpace=wrap;html=1;fillColor=#f9f7ed;strokeColor=none;rounded=0;" parent="1" vertex="1">
                    <mxGeometry x="290" y="540" width="120" height="120" as="geometry"/>
                </mxCell>
                <mxCell id="9" value="Participante" style="text;html=1;strokeColor=none;fillColor=none;align=center;verticalAlign=middle;whiteSpace=wrap;rounded=0;fontColor=#000000;" parent="1" vertex="1">
                    <mxGeometry x="20" y="585" width="60" height="30" as="geometry"/>
                </mxCell>
                <mxCell id="10" value="Inscrição" style="text;html=1;strokeColor=none;fillColor=none;align=center;verticalAlign=middle;whiteSpace=wrap;rounded=0;fontColor=#000000;" parent="1" vertex="1">
                    <mxGeometry x="320" y="585" width="60" height="30" as="geometry"/>
                </mxCell>
                <mxCell id="55" style="edgeStyle=none;html=1;exitX=0.25;exitY=0;exitDx=0;exitDy=0;fontColor=#000000;endArrow=none;endFill=0;" parent="1" source="11" target="56" edge="1">
                    <mxGeometry relative="1" as="geometry">
                        <mxPoint x="640" y="440" as="targetPoint"/>
                    </mxGeometry>
                </mxCell>
                <mxCell id="58" style="edgeStyle=none;html=1;exitX=0.75;exitY=1;exitDx=0;exitDy=0;fontColor=#000000;endArrow=none;endFill=0;" parent="1" source="11" target="59" edge="1">
                    <mxGeometry relative="1" as="geometry">
                        <mxPoint x="700" y="790" as="targetPoint"/>
                    </mxGeometry>
                </mxCell>
                <mxCell id="61" style="edgeStyle=none;html=1;exitX=0.25;exitY=1;exitDx=0;exitDy=0;fontColor=#000000;endArrow=none;endFill=0;" parent="1" source="11" target="62" edge="1">
                    <mxGeometry relative="1" as="geometry">
                        <mxPoint x="550" y="900" as="targetPoint"/>
                    </mxGeometry>
                </mxCell>
                <mxCell id="64" style="edgeStyle=none;html=1;exitX=0.75;exitY=0;exitDx=0;exitDy=0;fontColor=#000000;endArrow=none;endFill=0;" parent="1" source="11" target="65" edge="1">
                    <mxGeometry relative="1" as="geometry">
                        <mxPoint x="790" y="360" as="targetPoint"/>
                    </mxGeometry>
                </mxCell>
                <mxCell id="zBVtbjsKA-3f5Eu_UvvL-68" style="edgeStyle=none;shape=connector;rounded=1;html=1;exitX=1;exitY=1;exitDx=0;exitDy=0;labelBackgroundColor=default;strokeColor=default;fontFamily=Helvetica;fontSize=11;fontColor=#FFFFFF;endArrow=none;endFill=0;" parent="1" source="11" target="zBVtbjsKA-3f5Eu_UvvL-69" edge="1">
                    <mxGeometry relative="1" as="geometry">
                        <mxPoint x="889.9999999999995" y="799.9999999999998" as="targetPoint"/>
                    </mxGeometry>
                </mxCell>
                <mxCell id="71" style="edgeStyle=none;html=1;exitX=0.5;exitY=1;exitDx=0;exitDy=0;fontColor=#000000;endArrow=none;endFill=0;" parent="1" source="11" target="72" edge="1">
                    <mxGeometry relative="1" as="geometry">
                        <mxPoint x="650" y="970" as="targetPoint"/>
                    </mxGeometry>
                </mxCell>
                <mxCell id="11" value="" style="rounded=0;whiteSpace=wrap;html=1;fillColor=#f9f7ed;strokeColor=none;" parent="1" vertex="1">
                    <mxGeometry x="590" y="570" width="120" height="60" as="geometry"/>
                </mxCell>
                <mxCell id="13" value="Evento" style="text;html=1;strokeColor=none;fillColor=none;align=center;verticalAlign=middle;whiteSpace=wrap;rounded=0;fontColor=#000000;" parent="1" vertex="1">
                    <mxGeometry x="620" y="585" width="60" height="30" as="geometry"/>
                </mxCell>
                <mxCell id="17" value="" style="edgeStyle=none;html=1;fontColor=#000000;endArrow=none;endFill=0;entryX=0;entryY=0.5;entryDx=0;entryDy=0;" parent="1" source="6" target="11" edge="1">
                    <mxGeometry relative="1" as="geometry">
                        <mxPoint x="310" y="600" as="sourcePoint"/>
                        <mxPoint x="590" y="600" as="targetPoint"/>
                    </mxGeometry>
                </mxCell>
                <mxCell id="44" style="edgeStyle=none;html=1;exitX=1;exitY=0;exitDx=0;exitDy=0;fontColor=#000000;endArrow=none;endFill=0;" parent="1" source="16" target="45" edge="1">
                    <mxGeometry relative="1" as="geometry">
                        <mxPoint x="1100" y="460" as="targetPoint"/>
                    </mxGeometry>
                </mxCell>
                <mxCell id="47" style="edgeStyle=none;html=1;fontColor=#000000;endArrow=none;endFill=0;exitX=1;exitY=1;exitDx=0;exitDy=0;" parent="1" source="16" target="48" edge="1">
                    <mxGeometry relative="1" as="geometry">
                        <mxPoint x="940" y="740" as="targetPoint"/>
                        <mxPoint x="1020" y="670" as="sourcePoint"/>
                    </mxGeometry>
                </mxCell>
                <mxCell id="73" style="edgeStyle=none;html=1;exitX=0;exitY=0;exitDx=0;exitDy=0;fontColor=#000000;endArrow=none;endFill=0;" parent="1" source="16" target="74" edge="1">
                    <mxGeometry relative="1" as="geometry">
                        <mxPoint x="980" y="350" as="targetPoint"/>
                    </mxGeometry>
                </mxCell>
                <mxCell id="16" value="" style="rhombus;whiteSpace=wrap;html=1;fillColor=#f9f7ed;strokeColor=none;" parent="1" vertex="1">
                    <mxGeometry x="970" y="540" width="120" height="120" as="geometry"/>
                </mxCell>
                <mxCell id="19" value="Local" style="text;html=1;strokeColor=none;fillColor=none;align=center;verticalAlign=middle;whiteSpace=wrap;rounded=0;fontColor=#000000;" parent="1" vertex="1">
                    <mxGeometry x="1000" y="585" width="60" height="30" as="geometry"/>
                </mxCell>
                <mxCell id="21" value="" style="ellipse;whiteSpace=wrap;html=1;aspect=fixed;fillColor=#f9f7ed;strokeColor=none;" parent="1" vertex="1">
                    <mxGeometry x="-130" y="450" width="70" height="70" as="geometry"/>
                </mxCell>
                <mxCell id="22" value="Nome" style="text;html=1;strokeColor=none;fillColor=none;align=center;verticalAlign=middle;whiteSpace=wrap;rounded=0;fontColor=#000000;" parent="1" vertex="1">
                    <mxGeometry x="-125" y="470" width="60" height="30" as="geometry"/>
                </mxCell>
                <mxCell id="25" value="&lt;font color=&quot;#000000&quot;&gt;email&lt;br&gt;&lt;/font&gt;" style="ellipse;whiteSpace=wrap;html=1;aspect=fixed;fillColor=#f9f7ed;strokeColor=none;" parent="1" vertex="1">
                    <mxGeometry x="15" y="405" width="70" height="70" as="geometry"/>
                </mxCell>
                <mxCell id="28" value="" style="ellipse;whiteSpace=wrap;html=1;aspect=fixed;fillColor=#f9f7ed;strokeColor=none;" parent="1" vertex="1">
                    <mxGeometry x="-120" y="690" width="70" height="70" as="geometry"/>
                </mxCell>
                <mxCell id="29" value="Gênero" style="text;html=1;strokeColor=none;fillColor=none;align=center;verticalAlign=middle;whiteSpace=wrap;rounded=0;fontColor=#000000;" parent="1" vertex="1">
                    <mxGeometry x="-115" y="710" width="60" height="30" as="geometry"/>
                </mxCell>
                <mxCell id="31" value="" style="ellipse;whiteSpace=wrap;html=1;aspect=fixed;fillColor=#f9f7ed;strokeColor=none;" parent="1" vertex="1">
                    <mxGeometry x="40" y="760" width="70" height="70" as="geometry"/>
                </mxCell>
                <mxCell id="32" value="Idade" style="text;html=1;strokeColor=none;fillColor=none;align=center;verticalAlign=middle;whiteSpace=wrap;rounded=0;fontColor=#000000;" parent="1" vertex="1">
                    <mxGeometry x="45" y="780" width="60" height="30" as="geometry"/>
                </mxCell>
                <mxCell id="36" value="" style="ellipse;whiteSpace=wrap;html=1;aspect=fixed;fontColor=#333333;fillColor=#f5f5f5;strokeColor=none;" parent="1" vertex="1">
                    <mxGeometry x="230" y="420" width="60" height="60" as="geometry"/>
                </mxCell>
                <mxCell id="37" value="ID" style="text;html=1;strokeColor=none;fillColor=none;align=center;verticalAlign=middle;whiteSpace=wrap;rounded=0;fontColor=#000000;" parent="1" vertex="1">
                    <mxGeometry x="230" y="435" width="60" height="30" as="geometry"/>
                </mxCell>
                <mxCell id="39" value="" style="ellipse;whiteSpace=wrap;html=1;aspect=fixed;fontColor=#FFFFFF;fillColor=#FFFFFF;strokeColor=none;" parent="1" vertex="1">
                    <mxGeometry x="370" y="380" width="80" height="80" as="geometry"/>
                </mxCell>
                <mxCell id="40" value="Taxa" style="text;html=1;strokeColor=none;fillColor=none;align=center;verticalAlign=middle;whiteSpace=wrap;rounded=0;fontColor=#000000;" parent="1" vertex="1">
                    <mxGeometry x="380" y="405" width="60" height="30" as="geometry"/>
                </mxCell>
                <mxCell id="42" value="" style="ellipse;whiteSpace=wrap;html=1;aspect=fixed;fontColor=#333333;fillColor=#f5f5f5;strokeColor=none;" parent="1" vertex="1">
                    <mxGeometry x="250" y="695" width="80" height="80" as="geometry"/>
                </mxCell>
                <mxCell id="43" value="Data/hora" style="text;html=1;strokeColor=none;fillColor=none;align=center;verticalAlign=middle;whiteSpace=wrap;rounded=0;fontColor=#000000;" parent="1" vertex="1">
                    <mxGeometry x="260" y="720" width="60" height="30" as="geometry"/>
                </mxCell>
                <mxCell id="45" value="" style="ellipse;whiteSpace=wrap;html=1;aspect=fixed;fontColor=#333333;strokeColor=#666666;fillColor=#f5f5f5;" parent="1" vertex="1">
                    <mxGeometry x="1060" y="420" width="80" height="80" as="geometry"/>
                </mxCell>
                <mxCell id="46" value="Endereço" style="text;html=1;strokeColor=none;fillColor=none;align=center;verticalAlign=middle;whiteSpace=wrap;rounded=0;fontColor=#000000;" parent="1" vertex="1">
                    <mxGeometry x="1070" y="445" width="60" height="30" as="geometry"/>
                </mxCell>
                <mxCell id="48" value="" style="ellipse;whiteSpace=wrap;html=1;aspect=fixed;fontColor=#333333;strokeColor=#666666;fillColor=#f5f5f5;" parent="1" vertex="1">
                    <mxGeometry x="1070" y="670" width="80" height="80" as="geometry"/>
                </mxCell>
                <mxCell id="50" value="Data/hora" style="text;html=1;strokeColor=none;fillColor=none;align=center;verticalAlign=middle;whiteSpace=wrap;rounded=0;fontColor=#000000;" parent="1" vertex="1">
                    <mxGeometry x="1080" y="695" width="60" height="30" as="geometry"/>
                </mxCell>
                <mxCell id="53" value="" style="ellipse;whiteSpace=wrap;html=1;aspect=fixed;fontColor=#333333;strokeColor=#666666;fillColor=#f5f5f5;" parent="1" vertex="1">
                    <mxGeometry x="350" y="660" width="80" height="80" as="geometry"/>
                </mxCell>
                <mxCell id="54" value="Validade" style="text;html=1;strokeColor=none;fillColor=none;align=center;verticalAlign=middle;whiteSpace=wrap;rounded=0;fontColor=#000000;" parent="1" vertex="1">
                    <mxGeometry x="360" y="685" width="60" height="30" as="geometry"/>
                </mxCell>
                <mxCell id="56" value="" style="ellipse;whiteSpace=wrap;html=1;aspect=fixed;fontColor=#333333;fillColor=#f5f5f5;strokeColor=none;" parent="1" vertex="1">
                    <mxGeometry x="600" y="400" width="80" height="80" as="geometry"/>
                </mxCell>
                <mxCell id="57" value="Tipo" style="text;html=1;strokeColor=none;fillColor=none;align=center;verticalAlign=middle;whiteSpace=wrap;rounded=0;fontColor=#000000;" parent="1" vertex="1">
                    <mxGeometry x="610" y="425" width="60" height="30" as="geometry"/>
                </mxCell>
                <mxCell id="59" value="" style="ellipse;whiteSpace=wrap;html=1;aspect=fixed;fontColor=#333333;fillColor=#f5f5f5;strokeColor=none;" parent="1" vertex="1">
                    <mxGeometry x="660" y="725" width="80" height="80" as="geometry"/>
                </mxCell>
                <mxCell id="60" value="Classificação etária" style="text;html=1;strokeColor=none;fillColor=none;align=center;verticalAlign=middle;whiteSpace=wrap;rounded=0;fontColor=#000000;" parent="1" vertex="1">
                    <mxGeometry x="670" y="750" width="60" height="30" as="geometry"/>
                </mxCell>
                <mxCell id="62" value="" style="ellipse;whiteSpace=wrap;html=1;aspect=fixed;fontColor=#333333;fillColor=#f5f5f5;strokeColor=none;" parent="1" vertex="1">
                    <mxGeometry x="510" y="860" width="80" height="80" as="geometry"/>
                </mxCell>
                <mxCell id="63" value="Nome" style="text;html=1;strokeColor=none;fillColor=none;align=center;verticalAlign=middle;whiteSpace=wrap;rounded=0;fontColor=#000000;" parent="1" vertex="1">
                    <mxGeometry x="520" y="885" width="60" height="30" as="geometry"/>
                </mxCell>
                <mxCell id="65" value="" style="ellipse;whiteSpace=wrap;html=1;aspect=fixed;fontColor=#333333;strokeColor=#666666;fillColor=#f5f5f5;" parent="1" vertex="1">
                    <mxGeometry x="750" y="320" width="80" height="80" as="geometry"/>
                </mxCell>
                <mxCell id="66" value="Descrição" style="text;html=1;strokeColor=none;fillColor=none;align=center;verticalAlign=middle;whiteSpace=wrap;rounded=0;fontColor=#000000;" parent="1" vertex="1">
                    <mxGeometry x="760" y="345" width="60" height="30" as="geometry"/>
                </mxCell>
                <mxCell id="zBVtbjsKA-3f5Eu_UvvL-66" value="(1:1)" style="text;html=1;strokeColor=none;fillColor=none;align=center;verticalAlign=middle;whiteSpace=wrap;rounded=0;fontFamily=Helvetica;fontSize=11;fontColor=#FFFFFF;" parent="1" vertex="1">
                    <mxGeometry x="110" y="570" width="180" height="30" as="geometry"/>
                </mxCell>
                <mxCell id="zBVtbjsKA-3f5Eu_UvvL-67" value="(1:N)" style="text;html=1;strokeColor=none;fillColor=none;align=center;verticalAlign=middle;whiteSpace=wrap;rounded=0;fontFamily=Helvetica;fontSize=11;fontColor=#FFFFFF;" parent="1" vertex="1">
                    <mxGeometry x="410" y="570" width="180" height="30" as="geometry"/>
                </mxCell>
                <mxCell id="zBVtbjsKA-3f5Eu_UvvL-69" value="" style="ellipse;whiteSpace=wrap;html=1;aspect=fixed;fontFamily=Helvetica;fontSize=11;fontColor=#FFFFFF;fillColor=#f5f5f5;" parent="1" vertex="1">
                    <mxGeometry x="849.9999999999995" y="759.9999999999998" width="80" height="80" as="geometry"/>
                </mxCell>
                <mxCell id="zBVtbjsKA-3f5Eu_UvvL-70" value="ID" style="text;html=1;strokeColor=none;fillColor=none;align=center;verticalAlign=middle;whiteSpace=wrap;rounded=0;fontFamily=Helvetica;fontSize=11;fontColor=#000000;" parent="1" vertex="1">
                    <mxGeometry x="860" y="785" width="60" height="30" as="geometry"/>
                </mxCell>
                <mxCell id="dZwi6wYJvxEGnWO49I2V-66" value="(1:N)" style="text;html=1;strokeColor=none;fillColor=none;align=center;verticalAlign=middle;whiteSpace=wrap;rounded=0;fontFamily=Helvetica;fontSize=11;fontColor=#FFFFFF;" parent="1" vertex="1">
                    <mxGeometry x="710" y="570" width="260" height="30" as="geometry"/>
                </mxCell>
                <mxCell id="YFclPP9cMdC0-PAfr8tu-67" value="" style="ellipse;whiteSpace=wrap;html=1;aspect=fixed;fontFamily=Helvetica;fontSize=11;fontColor=#000000;fillColor=#f5f5f5;" parent="1" vertex="1">
                    <mxGeometry x="-200" y="559.6666666666665" width="80" height="80" as="geometry"/>
                </mxCell>
                <mxCell id="YFclPP9cMdC0-PAfr8tu-68" value="ID" style="text;html=1;strokeColor=none;fillColor=none;align=center;verticalAlign=middle;whiteSpace=wrap;rounded=0;fontFamily=Helvetica;fontSize=11;fontColor=#000000;" parent="1" vertex="1">
                    <mxGeometry x="-190" y="585" width="60" height="30" as="geometry"/>
                </mxCell>
                <mxCell id="68" value="Telefone" style="ellipse;whiteSpace=wrap;html=1;aspect=fixed;fontColor=#000000;fillColor=#FFFFFF;strokeColor=none;" parent="1" vertex="1">
                    <mxGeometry x="100" y="270" width="80" height="80" as="geometry"/>
                </mxCell>
                <mxCell id="70" value="CPF" style="ellipse;whiteSpace=wrap;html=1;aspect=fixed;fontColor=#000000;fillColor=#FFFFFF;" parent="1" vertex="1">
                    <mxGeometry x="-110" y="890" width="80" height="80" as="geometry"/>
                </mxCell>
                <mxCell id="72" value="Local" style="ellipse;whiteSpace=wrap;html=1;aspect=fixed;fontColor=#000000;fillColor=#FFFFFF;" parent="1" vertex="1">
                    <mxGeometry x="610" y="930" width="80" height="80" as="geometry"/>
                </mxCell>
                <mxCell id="74" value="Nome" style="ellipse;whiteSpace=wrap;html=1;aspect=fixed;fontColor=#000000;fillColor=#FFFFFF;" parent="1" vertex="1">
                    <mxGeometry x="940" y="310" width="80" height="80" as="geometry"/>
                </mxCell>
            </root>
        </mxGraphModel>
    </diagram>
    <diagram id="1M4WCyiPqBJGXV5D22og" name="Sistem de Gestão de Ordens de Produção">
        <mxGraphModel dx="2399" dy="1113" grid="1" gridSize="10" guides="1" tooltips="1" connect="1" arrows="1" fold="1" page="1" pageScale="1" pageWidth="850" pageHeight="1100" math="0" shadow="0">
            <root>
                <mxCell id="0"/>
                <mxCell id="1" parent="0"/>
                <mxCell id="nBurO2bEa_f4pWhD5YjE-4" style="edgeStyle=none;html=1;exitX=0;exitY=0.5;exitDx=0;exitDy=0;endArrow=none;endFill=0;" edge="1" parent="1" source="nBurO2bEa_f4pWhD5YjE-18">
                    <mxGeometry relative="1" as="geometry">
                        <mxPoint x="475.0000000000002" y="500.0923076923077" as="targetPoint"/>
                        <mxPoint x="740" y="500.5" as="sourcePoint"/>
                    </mxGeometry>
                </mxCell>
                <mxCell id="nBurO2bEa_f4pWhD5YjE-6" style="edgeStyle=none;html=1;exitX=0;exitY=0.5;exitDx=0;exitDy=0;endArrow=none;endFill=0;" edge="1" parent="1" source="nBurO2bEa_f4pWhD5YjE-22" target="nBurO2bEa_f4pWhD5YjE-7">
                    <mxGeometry relative="1" as="geometry">
                        <mxPoint x="235" y="499.75" as="targetPoint"/>
                        <mxPoint x="355.0000000000002" y="500" as="sourcePoint"/>
                    </mxGeometry>
                </mxCell>
                <mxCell id="nBurO2bEa_f4pWhD5YjE-13" style="edgeStyle=none;html=1;exitX=0.25;exitY=0;exitDx=0;exitDy=0;endArrow=none;endFill=0;" edge="1" parent="1" source="nBurO2bEa_f4pWhD5YjE-7" target="nBurO2bEa_f4pWhD5YjE-14">
                    <mxGeometry relative="1" as="geometry">
                        <mxPoint x="49.526315789473756" y="370" as="targetPoint"/>
                    </mxGeometry>
                </mxCell>
                <mxCell id="nBurO2bEa_f4pWhD5YjE-15" style="edgeStyle=none;html=1;exitX=0.25;exitY=1;exitDx=0;exitDy=0;endArrow=none;endFill=0;" edge="1" parent="1" source="nBurO2bEa_f4pWhD5YjE-7" target="nBurO2bEa_f4pWhD5YjE-31">
                    <mxGeometry relative="1" as="geometry">
                        <mxPoint x="30" y="650" as="targetPoint"/>
                    </mxGeometry>
                </mxCell>
                <mxCell id="nBurO2bEa_f4pWhD5YjE-7" value="Funcionário" style="rounded=0;whiteSpace=wrap;html=1;" vertex="1" parent="1">
                    <mxGeometry x="20" y="469.75" width="120" height="60" as="geometry"/>
                </mxCell>
                <mxCell id="nBurO2bEa_f4pWhD5YjE-8" value="Fornecedor" style="rounded=0;whiteSpace=wrap;html=1;" vertex="1" parent="1">
                    <mxGeometry x="390" y="270" width="120" height="60" as="geometry"/>
                </mxCell>
                <mxCell id="nBurO2bEa_f4pWhD5YjE-14" value="id_funcionario&lt;div&gt;&lt;br&gt;&lt;/div&gt;" style="ellipse;whiteSpace=wrap;html=1;aspect=fixed;" vertex="1" parent="1">
                    <mxGeometry y="280" width="92" height="92" as="geometry"/>
                </mxCell>
                <mxCell id="nBurO2bEa_f4pWhD5YjE-17" value="Produto" style="rounded=0;whiteSpace=wrap;html=1;" vertex="1" parent="1">
                    <mxGeometry x="740" y="470.5" width="120" height="60" as="geometry"/>
                </mxCell>
                <mxCell id="nBurO2bEa_f4pWhD5YjE-21" value="" style="edgeStyle=none;html=1;endArrow=none;endFill=0;exitX=0;exitY=0.5;exitDx=0;exitDy=0;" edge="1" parent="1" source="nBurO2bEa_f4pWhD5YjE-28" target="nBurO2bEa_f4pWhD5YjE-22">
                    <mxGeometry relative="1" as="geometry">
                        <mxPoint x="140" y="500" as="targetPoint"/>
                        <mxPoint x="355" y="500" as="sourcePoint"/>
                    </mxGeometry>
                </mxCell>
                <mxCell id="nBurO2bEa_f4pWhD5YjE-22" value="(1:N)" style="text;html=1;align=center;verticalAlign=middle;whiteSpace=wrap;rounded=0;" vertex="1" parent="1">
                    <mxGeometry x="140" y="484.75" width="30" height="30" as="geometry"/>
                </mxCell>
                <mxCell id="nBurO2bEa_f4pWhD5YjE-24" value="" style="edgeStyle=none;html=1;exitX=0;exitY=0.5;exitDx=0;exitDy=0;endArrow=none;endFill=0;" edge="1" parent="1" target="nBurO2bEa_f4pWhD5YjE-25">
                    <mxGeometry relative="1" as="geometry">
                        <mxPoint x="475.0000000000002" y="500.0923076923077" as="targetPoint"/>
                        <mxPoint x="740" y="500.5" as="sourcePoint"/>
                    </mxGeometry>
                </mxCell>
                <mxCell id="nBurO2bEa_f4pWhD5YjE-25" value="(1:N)" style="text;html=1;align=center;verticalAlign=middle;whiteSpace=wrap;rounded=0;" vertex="1" parent="1">
                    <mxGeometry x="710" y="484.75" width="30" height="30" as="geometry"/>
                </mxCell>
                <mxCell id="nBurO2bEa_f4pWhD5YjE-26" value="" style="edgeStyle=none;html=1;exitX=0;exitY=0.5;exitDx=0;exitDy=0;endArrow=none;endFill=0;" edge="1" parent="1" source="nBurO2bEa_f4pWhD5YjE-29" target="nBurO2bEa_f4pWhD5YjE-18">
                    <mxGeometry relative="1" as="geometry">
                        <mxPoint x="475.0000000000002" y="500.0923076923077" as="targetPoint"/>
                        <mxPoint x="710" y="500" as="sourcePoint"/>
                    </mxGeometry>
                </mxCell>
                <mxCell id="nBurO2bEa_f4pWhD5YjE-18" value="Ordem de Produção" style="rounded=0;whiteSpace=wrap;html=1;" vertex="1" parent="1">
                    <mxGeometry x="390" y="469.75" width="120" height="60" as="geometry"/>
                </mxCell>
                <mxCell id="nBurO2bEa_f4pWhD5YjE-27" value="" style="edgeStyle=none;html=1;endArrow=none;endFill=0;exitX=0;exitY=0.5;exitDx=0;exitDy=0;" edge="1" parent="1" source="nBurO2bEa_f4pWhD5YjE-18" target="nBurO2bEa_f4pWhD5YjE-28">
                    <mxGeometry relative="1" as="geometry">
                        <mxPoint x="170" y="500" as="targetPoint"/>
                        <mxPoint x="390" y="500" as="sourcePoint"/>
                    </mxGeometry>
                </mxCell>
                <mxCell id="nBurO2bEa_f4pWhD5YjE-28" value="(1:N)" style="text;html=1;align=center;verticalAlign=middle;whiteSpace=wrap;rounded=0;" vertex="1" parent="1">
                    <mxGeometry x="360" y="485" width="30" height="30" as="geometry"/>
                </mxCell>
                <mxCell id="nBurO2bEa_f4pWhD5YjE-30" value="" style="edgeStyle=none;html=1;exitX=0;exitY=0.5;exitDx=0;exitDy=0;endArrow=none;endFill=0;" edge="1" parent="1" source="nBurO2bEa_f4pWhD5YjE-25" target="nBurO2bEa_f4pWhD5YjE-29">
                    <mxGeometry relative="1" as="geometry">
                        <mxPoint x="510" y="500" as="targetPoint"/>
                        <mxPoint x="710" y="500" as="sourcePoint"/>
                    </mxGeometry>
                </mxCell>
                <mxCell id="nBurO2bEa_f4pWhD5YjE-29" value="(1:N)" style="text;html=1;align=center;verticalAlign=middle;whiteSpace=wrap;rounded=0;" vertex="1" parent="1">
                    <mxGeometry x="510" y="485" width="30" height="30" as="geometry"/>
                </mxCell>
                <mxCell id="nBurO2bEa_f4pWhD5YjE-31" value="" style="ellipse;whiteSpace=wrap;html=1;aspect=fixed;" vertex="1" parent="1">
                    <mxGeometry x="-30" y="640" width="80" height="80" as="geometry"/>
                </mxCell>
            </root>
        </mxGraphModel>
    </diagram>
    <diagram id="dr1Qvx88KBJaIVN_RhD0" name="Sistema de Gestão de Saúde">
        <mxGraphModel dx="1760" dy="1879" grid="1" gridSize="10" guides="1" tooltips="1" connect="1" arrows="1" fold="1" page="1" pageScale="1" pageWidth="850" pageHeight="1100" math="0" shadow="0">
            <root>
                <mxCell id="0"/>
                <mxCell id="1" parent="0"/>
                <mxCell id="nPT687pGPDoJ6YuOVTEo-1" style="edgeStyle=none;html=1;exitX=1;exitY=0.5;exitDx=0;exitDy=0;fontColor=#000000;endArrow=none;endFill=0;startArrow=none;" parent="1" source="nPT687pGPDoJ6YuOVTEo-3" target="nPT687pGPDoJ6YuOVTEo-2" edge="1">
                    <mxGeometry relative="1" as="geometry">
                        <mxPoint x="320" y="290" as="targetPoint"/>
                    </mxGeometry>
                </mxCell>
                <mxCell id="nPT687pGPDoJ6YuOVTEo-11" style="edgeStyle=none;html=1;exitX=0.5;exitY=0;exitDx=0;exitDy=0;fontColor=#000000;endArrow=none;endFill=0;" parent="1" source="v6dHI_zhfIR5_jQdszG_-1" target="nPT687pGPDoJ6YuOVTEo-12" edge="1">
                    <mxGeometry relative="1" as="geometry">
                        <mxPoint x="-120" y="140" as="targetPoint"/>
                    </mxGeometry>
                </mxCell>
                <mxCell id="7QRfpfaqpKaJ4yjYZjXz-2" style="edgeStyle=none;html=1;exitX=0.75;exitY=1;exitDx=0;exitDy=0;fontColor=#000000;endArrow=none;endFill=0;" parent="1" source="v6dHI_zhfIR5_jQdszG_-1" target="7QRfpfaqpKaJ4yjYZjXz-3" edge="1">
                    <mxGeometry relative="1" as="geometry">
                        <mxPoint x="-90" y="500" as="targetPoint"/>
                    </mxGeometry>
                </mxCell>
                <mxCell id="7QRfpfaqpKaJ4yjYZjXz-10" style="edgeStyle=none;shape=connector;rounded=1;html=1;exitX=0.75;exitY=0;exitDx=0;exitDy=0;labelBackgroundColor=default;strokeColor=default;fontFamily=Helvetica;fontSize=11;fontColor=#000000;endArrow=none;endFill=0;" parent="1" source="v6dHI_zhfIR5_jQdszG_-1" target="7QRfpfaqpKaJ4yjYZjXz-11" edge="1">
                    <mxGeometry relative="1" as="geometry">
                        <mxPoint x="-90" y="160" as="targetPoint"/>
                    </mxGeometry>
                </mxCell>
                <mxCell id="7QRfpfaqpKaJ4yjYZjXz-13" style="edgeStyle=none;shape=connector;rounded=1;html=1;exitX=0.25;exitY=0;exitDx=0;exitDy=0;labelBackgroundColor=default;strokeColor=default;fontFamily=Helvetica;fontSize=11;fontColor=#000000;endArrow=none;endFill=0;" parent="1" source="v6dHI_zhfIR5_jQdszG_-1" target="7QRfpfaqpKaJ4yjYZjXz-14" edge="1">
                    <mxGeometry relative="1" as="geometry">
                        <mxPoint x="-210" y="170" as="targetPoint"/>
                    </mxGeometry>
                </mxCell>
                <mxCell id="GFVxzaxemuZA8G760R3r-7" style="edgeStyle=none;shape=connector;rounded=1;html=1;exitX=0;exitY=0.5;exitDx=0;exitDy=0;labelBackgroundColor=default;strokeColor=default;fontFamily=Helvetica;fontSize=11;fontColor=#000000;endArrow=none;endFill=0;" parent="1" source="v6dHI_zhfIR5_jQdszG_-1" target="GFVxzaxemuZA8G760R3r-8" edge="1">
                    <mxGeometry relative="1" as="geometry">
                        <mxPoint x="-290" y="290" as="targetPoint"/>
                    </mxGeometry>
                </mxCell>
                <mxCell id="GFVxzaxemuZA8G760R3r-10" style="edgeStyle=none;shape=connector;rounded=1;html=1;exitX=0;exitY=0.75;exitDx=0;exitDy=0;labelBackgroundColor=default;strokeColor=default;fontFamily=Helvetica;fontSize=11;fontColor=#000000;endArrow=none;endFill=0;" parent="1" source="v6dHI_zhfIR5_jQdszG_-1" target="GFVxzaxemuZA8G760R3r-11" edge="1">
                    <mxGeometry relative="1" as="geometry">
                        <mxPoint x="-380" y="440" as="targetPoint"/>
                    </mxGeometry>
                </mxCell>
                <mxCell id="GFVxzaxemuZA8G760R3r-13" style="edgeStyle=none;shape=connector;rounded=1;html=1;exitX=0.5;exitY=1;exitDx=0;exitDy=0;labelBackgroundColor=default;strokeColor=default;fontFamily=Helvetica;fontSize=11;fontColor=#000000;endArrow=none;endFill=0;" parent="1" source="v6dHI_zhfIR5_jQdszG_-1" target="GFVxzaxemuZA8G760R3r-14" edge="1">
                    <mxGeometry relative="1" as="geometry">
                        <mxPoint x="-240" y="670" as="targetPoint"/>
                    </mxGeometry>
                </mxCell>
                <mxCell id="v6dHI_zhfIR5_jQdszG_-1" value="" style="rounded=0;whiteSpace=wrap;html=1;shadow=0;glass=0;sketch=0;strokeColor=#666666;fontColor=#333333;fillColor=#f5f5f5;" parent="1" vertex="1">
                    <mxGeometry x="-180" y="260" width="120" height="60" as="geometry"/>
                </mxCell>
                <mxCell id="nPT687pGPDoJ6YuOVTEo-8" style="edgeStyle=none;html=1;exitX=1;exitY=0.5;exitDx=0;exitDy=0;fontColor=#000000;endArrow=none;endFill=0;" parent="1" source="nPT687pGPDoJ6YuOVTEo-2" target="nPT687pGPDoJ6YuOVTEo-9" edge="1">
                    <mxGeometry relative="1" as="geometry">
                        <mxPoint x="630" y="290" as="targetPoint"/>
                    </mxGeometry>
                </mxCell>
                <mxCell id="7QRfpfaqpKaJ4yjYZjXz-30" style="edgeStyle=none;shape=connector;rounded=1;html=1;exitX=0.5;exitY=0;exitDx=0;exitDy=0;labelBackgroundColor=default;strokeColor=default;fontFamily=Helvetica;fontSize=11;fontColor=#000000;endArrow=none;endFill=0;" parent="1" source="nPT687pGPDoJ6YuOVTEo-2" target="7QRfpfaqpKaJ4yjYZjXz-31" edge="1">
                    <mxGeometry relative="1" as="geometry">
                        <mxPoint x="525" y="120" as="targetPoint"/>
                    </mxGeometry>
                </mxCell>
                <mxCell id="7QRfpfaqpKaJ4yjYZjXz-33" style="edgeStyle=none;shape=connector;rounded=1;html=1;exitX=0.75;exitY=1;exitDx=0;exitDy=0;labelBackgroundColor=default;strokeColor=default;fontFamily=Helvetica;fontSize=11;fontColor=#000000;endArrow=none;endFill=0;" parent="1" source="nPT687pGPDoJ6YuOVTEo-2" target="7QRfpfaqpKaJ4yjYZjXz-34" edge="1">
                    <mxGeometry relative="1" as="geometry">
                        <mxPoint x="605" y="500" as="targetPoint"/>
                    </mxGeometry>
                </mxCell>
                <mxCell id="7QRfpfaqpKaJ4yjYZjXz-36" style="edgeStyle=none;shape=connector;rounded=1;html=1;exitX=0.25;exitY=1;exitDx=0;exitDy=0;labelBackgroundColor=default;strokeColor=default;fontFamily=Helvetica;fontSize=11;fontColor=#000000;endArrow=none;endFill=0;" parent="1" source="nPT687pGPDoJ6YuOVTEo-2" target="7QRfpfaqpKaJ4yjYZjXz-37" edge="1">
                    <mxGeometry relative="1" as="geometry">
                        <mxPoint x="485" y="380" as="targetPoint"/>
                    </mxGeometry>
                </mxCell>
                <mxCell id="7QRfpfaqpKaJ4yjYZjXz-39" style="edgeStyle=none;shape=connector;rounded=1;html=1;exitX=0.75;exitY=0;exitDx=0;exitDy=0;labelBackgroundColor=default;strokeColor=default;fontFamily=Helvetica;fontSize=11;fontColor=#000000;endArrow=none;endFill=0;" parent="1" source="nPT687pGPDoJ6YuOVTEo-2" target="7QRfpfaqpKaJ4yjYZjXz-40" edge="1">
                    <mxGeometry relative="1" as="geometry">
                        <mxPoint x="645" y="110" as="targetPoint"/>
                    </mxGeometry>
                </mxCell>
                <mxCell id="7QRfpfaqpKaJ4yjYZjXz-42" style="edgeStyle=none;shape=connector;rounded=1;html=1;exitX=0.25;exitY=0;exitDx=0;exitDy=0;labelBackgroundColor=default;strokeColor=default;fontFamily=Helvetica;fontSize=11;fontColor=#000000;endArrow=none;endFill=0;" parent="1" source="nPT687pGPDoJ6YuOVTEo-2" target="7QRfpfaqpKaJ4yjYZjXz-43" edge="1">
                    <mxGeometry relative="1" as="geometry">
                        <mxPoint x="475" y="220" as="targetPoint"/>
                    </mxGeometry>
                </mxCell>
                <mxCell id="GFVxzaxemuZA8G760R3r-1" style="edgeStyle=none;shape=connector;rounded=1;html=1;exitX=1;exitY=1;exitDx=0;exitDy=0;labelBackgroundColor=default;strokeColor=default;fontFamily=Helvetica;fontSize=11;fontColor=#FFFFFF;endArrow=none;endFill=0;" parent="1" source="nPT687pGPDoJ6YuOVTEo-2" target="GFVxzaxemuZA8G760R3r-2" edge="1">
                    <mxGeometry relative="1" as="geometry">
                        <mxPoint x="799.9999999999995" y="700" as="targetPoint"/>
                    </mxGeometry>
                </mxCell>
                <mxCell id="GFVxzaxemuZA8G760R3r-4" style="edgeStyle=none;shape=connector;rounded=1;html=1;exitX=0.5;exitY=1;exitDx=0;exitDy=0;labelBackgroundColor=default;strokeColor=default;fontFamily=Helvetica;fontSize=11;fontColor=#000000;endArrow=none;endFill=0;" parent="1" source="nPT687pGPDoJ6YuOVTEo-2" target="GFVxzaxemuZA8G760R3r-5" edge="1">
                    <mxGeometry relative="1" as="geometry">
                        <mxPoint x="510" y="700" as="targetPoint"/>
                    </mxGeometry>
                </mxCell>
                <mxCell id="GFVxzaxemuZA8G760R3r-19" style="edgeStyle=none;shape=connector;rounded=1;html=1;exitX=1;exitY=0;exitDx=0;exitDy=0;labelBackgroundColor=default;strokeColor=default;fontFamily=Helvetica;fontSize=11;fontColor=#000000;endArrow=none;endFill=0;" parent="1" source="nPT687pGPDoJ6YuOVTEo-2" target="GFVxzaxemuZA8G760R3r-20" edge="1">
                    <mxGeometry relative="1" as="geometry">
                        <mxPoint x="780" y="30" as="targetPoint"/>
                    </mxGeometry>
                </mxCell>
                <mxCell id="GFVxzaxemuZA8G760R3r-22" style="edgeStyle=none;shape=connector;rounded=1;html=1;exitX=0;exitY=0.75;exitDx=0;exitDy=0;labelBackgroundColor=default;strokeColor=default;fontFamily=Helvetica;fontSize=11;fontColor=#000000;endArrow=none;endFill=0;" parent="1" source="nPT687pGPDoJ6YuOVTEo-2" target="GFVxzaxemuZA8G760R3r-23" edge="1">
                    <mxGeometry relative="1" as="geometry">
                        <mxPoint x="350" y="360" as="targetPoint"/>
                    </mxGeometry>
                </mxCell>
                <mxCell id="nPT687pGPDoJ6YuOVTEo-2" value="" style="rounded=0;whiteSpace=wrap;html=1;shadow=0;glass=0;sketch=0;strokeColor=none;fontColor=#333333;fillColor=#f5f5f5;" parent="1" vertex="1">
                    <mxGeometry x="465" y="260" width="120" height="60" as="geometry"/>
                </mxCell>
                <mxCell id="nPT687pGPDoJ6YuOVTEo-4" value="" style="edgeStyle=none;html=1;exitX=1;exitY=0.5;exitDx=0;exitDy=0;fontColor=#000000;endArrow=none;endFill=0;" parent="1" source="v6dHI_zhfIR5_jQdszG_-1" target="nPT687pGPDoJ6YuOVTEo-3" edge="1">
                    <mxGeometry relative="1" as="geometry">
                        <mxPoint x="390" y="290" as="targetPoint"/>
                        <mxPoint x="160" y="290" as="sourcePoint"/>
                    </mxGeometry>
                </mxCell>
                <mxCell id="7QRfpfaqpKaJ4yjYZjXz-16" style="edgeStyle=none;shape=connector;rounded=1;html=1;exitX=1;exitY=0;exitDx=0;exitDy=0;labelBackgroundColor=default;strokeColor=default;fontFamily=Helvetica;fontSize=11;fontColor=#000000;endArrow=none;endFill=0;" parent="1" source="nPT687pGPDoJ6YuOVTEo-3" target="7QRfpfaqpKaJ4yjYZjXz-17" edge="1">
                    <mxGeometry relative="1" as="geometry">
                        <mxPoint x="240" y="130" as="targetPoint"/>
                    </mxGeometry>
                </mxCell>
                <mxCell id="7QRfpfaqpKaJ4yjYZjXz-19" style="edgeStyle=none;shape=connector;rounded=1;html=1;exitX=1;exitY=1;exitDx=0;exitDy=0;labelBackgroundColor=default;strokeColor=default;fontFamily=Helvetica;fontSize=11;fontColor=#000000;endArrow=none;endFill=0;" parent="1" source="nPT687pGPDoJ6YuOVTEo-3" target="7QRfpfaqpKaJ4yjYZjXz-20" edge="1">
                    <mxGeometry relative="1" as="geometry">
                        <mxPoint x="230" y="480" as="targetPoint"/>
                    </mxGeometry>
                </mxCell>
                <mxCell id="7QRfpfaqpKaJ4yjYZjXz-22" style="edgeStyle=none;shape=connector;rounded=1;html=1;exitX=0.5;exitY=1;exitDx=0;exitDy=0;labelBackgroundColor=default;strokeColor=default;fontFamily=Helvetica;fontSize=11;fontColor=#000000;endArrow=none;endFill=0;" parent="1" source="nPT687pGPDoJ6YuOVTEo-3" target="7QRfpfaqpKaJ4yjYZjXz-23" edge="1">
                    <mxGeometry relative="1" as="geometry">
                        <mxPoint x="110" y="420" as="targetPoint"/>
                    </mxGeometry>
                </mxCell>
                <mxCell id="7QRfpfaqpKaJ4yjYZjXz-26" style="edgeStyle=none;shape=connector;rounded=1;html=1;exitX=0.5;exitY=0;exitDx=0;exitDy=0;labelBackgroundColor=default;strokeColor=default;fontFamily=Helvetica;fontSize=11;fontColor=#000000;endArrow=none;endFill=0;" parent="1" source="nPT687pGPDoJ6YuOVTEo-3" target="7QRfpfaqpKaJ4yjYZjXz-27" edge="1">
                    <mxGeometry relative="1" as="geometry">
                        <mxPoint x="170" y="110" as="targetPoint"/>
                    </mxGeometry>
                </mxCell>
                <mxCell id="GFVxzaxemuZA8G760R3r-28" style="edgeStyle=none;shape=connector;rounded=1;html=1;exitX=0;exitY=1;exitDx=0;exitDy=0;labelBackgroundColor=default;strokeColor=default;fontFamily=Helvetica;fontSize=11;fontColor=#000000;endArrow=none;endFill=0;" parent="1" source="nPT687pGPDoJ6YuOVTEo-3" target="GFVxzaxemuZA8G760R3r-29" edge="1">
                    <mxGeometry relative="1" as="geometry">
                        <mxPoint x="50" y="430" as="targetPoint"/>
                    </mxGeometry>
                </mxCell>
                <mxCell id="nPT687pGPDoJ6YuOVTEo-3" value="" style="rhombus;whiteSpace=wrap;html=1;rounded=0;shadow=0;glass=0;sketch=0;strokeColor=none;fontColor=#333333;fillColor=#f5f5f5;" parent="1" vertex="1">
                    <mxGeometry x="120" y="240" width="100" height="100" as="geometry"/>
                </mxCell>
                <mxCell id="nPT687pGPDoJ6YuOVTEo-5" value="Paciente" style="text;html=1;strokeColor=none;fillColor=none;align=center;verticalAlign=middle;whiteSpace=wrap;rounded=0;shadow=0;glass=0;sketch=0;fontColor=#000000;" parent="1" vertex="1">
                    <mxGeometry x="-150" y="275" width="60" height="30" as="geometry"/>
                </mxCell>
                <mxCell id="nPT687pGPDoJ6YuOVTEo-6" value="Consulta" style="text;html=1;strokeColor=none;fillColor=none;align=center;verticalAlign=middle;whiteSpace=wrap;rounded=0;shadow=0;glass=0;sketch=0;fontColor=#000000;" parent="1" vertex="1">
                    <mxGeometry x="140" y="275" width="60" height="30" as="geometry"/>
                </mxCell>
                <mxCell id="nPT687pGPDoJ6YuOVTEo-7" value="Médico" style="text;html=1;strokeColor=none;fillColor=none;align=center;verticalAlign=middle;whiteSpace=wrap;rounded=0;shadow=0;glass=0;sketch=0;fontColor=#000000;" parent="1" vertex="1">
                    <mxGeometry x="495" y="275" width="60" height="30" as="geometry"/>
                </mxCell>
                <mxCell id="7QRfpfaqpKaJ4yjYZjXz-45" style="edgeStyle=none;shape=connector;rounded=1;html=1;exitX=0.25;exitY=0;exitDx=0;exitDy=0;labelBackgroundColor=default;strokeColor=default;fontFamily=Helvetica;fontSize=11;fontColor=#000000;endArrow=none;endFill=0;" parent="1" source="nPT687pGPDoJ6YuOVTEo-9" target="7QRfpfaqpKaJ4yjYZjXz-46" edge="1">
                    <mxGeometry relative="1" as="geometry">
                        <mxPoint x="830" y="180" as="targetPoint"/>
                    </mxGeometry>
                </mxCell>
                <mxCell id="7QRfpfaqpKaJ4yjYZjXz-48" style="edgeStyle=none;shape=connector;rounded=1;html=1;exitX=0.5;exitY=1;exitDx=0;exitDy=0;labelBackgroundColor=default;strokeColor=default;fontFamily=Helvetica;fontSize=11;fontColor=#000000;endArrow=none;endFill=0;" parent="1" source="nPT687pGPDoJ6YuOVTEo-9" target="7QRfpfaqpKaJ4yjYZjXz-53" edge="1">
                    <mxGeometry relative="1" as="geometry">
                        <mxPoint x="885" y="485" as="targetPoint"/>
                    </mxGeometry>
                </mxCell>
                <mxCell id="GFVxzaxemuZA8G760R3r-25" style="edgeStyle=none;shape=connector;rounded=1;html=1;exitX=0.75;exitY=0;exitDx=0;exitDy=0;labelBackgroundColor=default;strokeColor=default;fontFamily=Helvetica;fontSize=11;fontColor=#000000;endArrow=none;endFill=0;" parent="1" source="nPT687pGPDoJ6YuOVTEo-9" target="GFVxzaxemuZA8G760R3r-26" edge="1">
                    <mxGeometry relative="1" as="geometry">
                        <mxPoint x="990" y="130" as="targetPoint"/>
                    </mxGeometry>
                </mxCell>
                <mxCell id="y4tD8XefeHuMXNXwYBQS-1" style="edgeStyle=none;shape=connector;rounded=1;html=1;exitX=1;exitY=0.5;exitDx=0;exitDy=0;labelBackgroundColor=default;strokeColor=default;fontFamily=Helvetica;fontSize=11;fontColor=#000000;endArrow=none;endFill=0;" parent="1" source="nPT687pGPDoJ6YuOVTEo-9" target="y4tD8XefeHuMXNXwYBQS-2" edge="1">
                    <mxGeometry relative="1" as="geometry">
                        <mxPoint x="1069.9999999999995" y="380" as="targetPoint"/>
                    </mxGeometry>
                </mxCell>
                <mxCell id="nPT687pGPDoJ6YuOVTEo-9" value="" style="rounded=0;whiteSpace=wrap;html=1;shadow=0;glass=0;sketch=0;strokeColor=#666666;fontColor=#333333;fillColor=#f5f5f5;" parent="1" vertex="1">
                    <mxGeometry x="770" y="260" width="120" height="60" as="geometry"/>
                </mxCell>
                <mxCell id="nPT687pGPDoJ6YuOVTEo-10" value="Especialidade" style="text;html=1;strokeColor=none;fillColor=none;align=center;verticalAlign=middle;whiteSpace=wrap;rounded=0;shadow=0;glass=0;sketch=0;fontColor=#000000;" parent="1" vertex="1">
                    <mxGeometry x="800" y="275" width="60" height="30" as="geometry"/>
                </mxCell>
                <mxCell id="nPT687pGPDoJ6YuOVTEo-12" value="" style="ellipse;whiteSpace=wrap;html=1;aspect=fixed;rounded=0;shadow=0;glass=0;sketch=0;strokeColor=none;fontColor=#333333;fillColor=#f5f5f5;" parent="1" vertex="1">
                    <mxGeometry x="-160" y="30" width="80" height="80" as="geometry"/>
                </mxCell>
                <mxCell id="7QRfpfaqpKaJ4yjYZjXz-1" value="Nome" style="text;html=1;strokeColor=none;fillColor=none;align=center;verticalAlign=middle;whiteSpace=wrap;rounded=0;fontColor=#000000;" parent="1" vertex="1">
                    <mxGeometry x="-150" y="55" width="60" height="30" as="geometry"/>
                </mxCell>
                <mxCell id="7QRfpfaqpKaJ4yjYZjXz-3" value="" style="ellipse;whiteSpace=wrap;html=1;aspect=fixed;fontColor=#333333;strokeColor=none;fillColor=#f5f5f5;" parent="1" vertex="1">
                    <mxGeometry x="-130" y="460" width="80" height="80" as="geometry"/>
                </mxCell>
                <mxCell id="7QRfpfaqpKaJ4yjYZjXz-6" value="Gênero" style="text;html=1;strokeColor=none;fillColor=none;align=center;verticalAlign=middle;whiteSpace=wrap;rounded=0;fontFamily=Helvetica;fontSize=12;fontColor=#333333;" parent="1" vertex="1">
                    <mxGeometry x="-120" y="485" width="60" height="30" as="geometry"/>
                </mxCell>
                <mxCell id="7QRfpfaqpKaJ4yjYZjXz-11" value="" style="ellipse;whiteSpace=wrap;html=1;aspect=fixed;fontFamily=Helvetica;fontSize=11;fontColor=#000000;fillColor=#f5f5f5;" parent="1" vertex="1">
                    <mxGeometry x="-90" y="120" width="80" height="80" as="geometry"/>
                </mxCell>
                <mxCell id="7QRfpfaqpKaJ4yjYZjXz-12" value="Solicitação" style="text;html=1;strokeColor=none;fillColor=none;align=center;verticalAlign=middle;whiteSpace=wrap;rounded=0;fontFamily=Helvetica;fontSize=11;fontColor=#000000;" parent="1" vertex="1">
                    <mxGeometry x="-80" y="145" width="60" height="30" as="geometry"/>
                </mxCell>
                <mxCell id="7QRfpfaqpKaJ4yjYZjXz-14" value="" style="ellipse;whiteSpace=wrap;html=1;aspect=fixed;fontFamily=Helvetica;fontSize=11;fontColor=#000000;fillColor=#f5f5f5;" parent="1" vertex="1">
                    <mxGeometry x="-290" y="110" width="80" height="80" as="geometry"/>
                </mxCell>
                <mxCell id="7QRfpfaqpKaJ4yjYZjXz-15" value="ID" style="text;html=1;strokeColor=none;fillColor=none;align=center;verticalAlign=middle;whiteSpace=wrap;rounded=0;fontFamily=Helvetica;fontSize=11;fontColor=#000000;" parent="1" vertex="1">
                    <mxGeometry x="-280" y="135" width="60" height="30" as="geometry"/>
                </mxCell>
                <mxCell id="7QRfpfaqpKaJ4yjYZjXz-17" value="" style="ellipse;whiteSpace=wrap;html=1;aspect=fixed;fontFamily=Helvetica;fontSize=11;fontColor=#000000;fillColor=#f5f5f5;" parent="1" vertex="1">
                    <mxGeometry x="245" y="-10" width="80" height="80" as="geometry"/>
                </mxCell>
                <mxCell id="7QRfpfaqpKaJ4yjYZjXz-18" value="Sintomas" style="text;html=1;strokeColor=none;fillColor=none;align=center;verticalAlign=middle;whiteSpace=wrap;rounded=0;fontFamily=Helvetica;fontSize=11;fontColor=#000000;" parent="1" vertex="1">
                    <mxGeometry x="255" y="15" width="60" height="30" as="geometry"/>
                </mxCell>
                <mxCell id="7QRfpfaqpKaJ4yjYZjXz-20" value="" style="ellipse;whiteSpace=wrap;html=1;aspect=fixed;fontFamily=Helvetica;fontSize=11;fontColor=#000000;fillColor=#f5f5f5;" parent="1" vertex="1">
                    <mxGeometry x="285" y="550" width="80" height="80" as="geometry"/>
                </mxCell>
                <mxCell id="7QRfpfaqpKaJ4yjYZjXz-21" value="Histórico" style="text;html=1;strokeColor=none;fillColor=none;align=center;verticalAlign=middle;whiteSpace=wrap;rounded=0;fontFamily=Helvetica;fontSize=11;fontColor=#000000;" parent="1" vertex="1">
                    <mxGeometry x="295" y="575" width="60" height="30" as="geometry"/>
                </mxCell>
                <mxCell id="7QRfpfaqpKaJ4yjYZjXz-23" value="" style="ellipse;whiteSpace=wrap;html=1;aspect=fixed;fontFamily=Helvetica;fontSize=11;fontColor=#000000;fillColor=#f5f5f5;" parent="1" vertex="1">
                    <mxGeometry x="110" y="425" width="80" height="80" as="geometry"/>
                </mxCell>
                <mxCell id="7QRfpfaqpKaJ4yjYZjXz-24" value="Alergias" style="text;html=1;strokeColor=none;fillColor=none;align=center;verticalAlign=middle;whiteSpace=wrap;rounded=0;fontFamily=Helvetica;fontSize=11;fontColor=#000000;" parent="1" vertex="1">
                    <mxGeometry x="120" y="450" width="60" height="30" as="geometry"/>
                </mxCell>
                <mxCell id="7QRfpfaqpKaJ4yjYZjXz-27" value="" style="ellipse;whiteSpace=wrap;html=1;aspect=fixed;fontFamily=Helvetica;fontSize=11;fontColor=#000000;fillColor=#f5f5f5;" parent="1" vertex="1">
                    <mxGeometry x="130" y="70" width="80" height="80" as="geometry"/>
                </mxCell>
                <mxCell id="7QRfpfaqpKaJ4yjYZjXz-28" value="Exames&lt;br&gt;Anteriores" style="text;html=1;strokeColor=none;fillColor=none;align=center;verticalAlign=middle;whiteSpace=wrap;rounded=0;fontFamily=Helvetica;fontSize=11;fontColor=#000000;" parent="1" vertex="1">
                    <mxGeometry x="140" y="95" width="60" height="30" as="geometry"/>
                </mxCell>
                <mxCell id="7QRfpfaqpKaJ4yjYZjXz-31" value="" style="ellipse;whiteSpace=wrap;html=1;aspect=fixed;fontFamily=Helvetica;fontSize=11;fontColor=#000000;fillColor=#f5f5f5;" parent="1" vertex="1">
                    <mxGeometry x="485" y="-140" width="80" height="80" as="geometry"/>
                </mxCell>
                <mxCell id="7QRfpfaqpKaJ4yjYZjXz-32" value="Nome" style="text;html=1;strokeColor=none;fillColor=none;align=center;verticalAlign=middle;whiteSpace=wrap;rounded=0;fontFamily=Helvetica;fontSize=11;fontColor=#000000;" parent="1" vertex="1">
                    <mxGeometry x="495" y="-115" width="60" height="30" as="geometry"/>
                </mxCell>
                <mxCell id="7QRfpfaqpKaJ4yjYZjXz-34" value="" style="ellipse;whiteSpace=wrap;html=1;aspect=fixed;fontFamily=Helvetica;fontSize=11;fontColor=#000000;fillColor=#f5f5f5;" parent="1" vertex="1">
                    <mxGeometry x="565" y="460" width="80" height="80" as="geometry"/>
                </mxCell>
                <mxCell id="7QRfpfaqpKaJ4yjYZjXz-35" value="Experiência" style="text;html=1;strokeColor=none;fillColor=none;align=center;verticalAlign=middle;whiteSpace=wrap;rounded=0;fontFamily=Helvetica;fontSize=11;fontColor=#000000;" parent="1" vertex="1">
                    <mxGeometry x="575" y="485" width="60" height="30" as="geometry"/>
                </mxCell>
                <mxCell id="7QRfpfaqpKaJ4yjYZjXz-37" value="" style="ellipse;whiteSpace=wrap;html=1;aspect=fixed;fontFamily=Helvetica;fontSize=11;fontColor=#000000;fillColor=#f5f5f5;" parent="1" vertex="1">
                    <mxGeometry x="365" y="410" width="80" height="80" as="geometry"/>
                </mxCell>
                <mxCell id="7QRfpfaqpKaJ4yjYZjXz-38" value="Cargo" style="text;html=1;strokeColor=none;fillColor=none;align=center;verticalAlign=middle;whiteSpace=wrap;rounded=0;fontFamily=Helvetica;fontSize=11;fontColor=#000000;" parent="1" vertex="1">
                    <mxGeometry x="375" y="435" width="60" height="30" as="geometry"/>
                </mxCell>
                <mxCell id="7QRfpfaqpKaJ4yjYZjXz-40" value="" style="ellipse;whiteSpace=wrap;html=1;aspect=fixed;fontFamily=Helvetica;fontSize=11;fontColor=#000000;fillColor=#f5f5f5;" parent="1" vertex="1">
                    <mxGeometry x="575" y="60" width="80" height="80" as="geometry"/>
                </mxCell>
                <mxCell id="7QRfpfaqpKaJ4yjYZjXz-41" value="Gênero" style="text;html=1;strokeColor=none;fillColor=none;align=center;verticalAlign=middle;whiteSpace=wrap;rounded=0;fontFamily=Helvetica;fontSize=11;fontColor=#000000;" parent="1" vertex="1">
                    <mxGeometry x="585" y="85" width="60" height="30" as="geometry"/>
                </mxCell>
                <mxCell id="7QRfpfaqpKaJ4yjYZjXz-43" value="" style="ellipse;whiteSpace=wrap;html=1;aspect=fixed;fontFamily=Helvetica;fontSize=11;fontColor=#000000;fillColor=#f5f5f5;" parent="1" vertex="1">
                    <mxGeometry x="380" y="55" width="80" height="80" as="geometry"/>
                </mxCell>
                <mxCell id="7QRfpfaqpKaJ4yjYZjXz-44" value="ID" style="text;html=1;strokeColor=none;fillColor=none;align=center;verticalAlign=middle;whiteSpace=wrap;rounded=0;fontFamily=Helvetica;fontSize=11;fontColor=#000000;" parent="1" vertex="1">
                    <mxGeometry x="390" y="80" width="60" height="30" as="geometry"/>
                </mxCell>
                <mxCell id="7QRfpfaqpKaJ4yjYZjXz-46" value="" style="ellipse;whiteSpace=wrap;html=1;aspect=fixed;fontFamily=Helvetica;fontSize=11;fontColor=#000000;fillColor=#f5f5f5;" parent="1" vertex="1">
                    <mxGeometry x="820" y="65" width="80" height="80" as="geometry"/>
                </mxCell>
                <mxCell id="7QRfpfaqpKaJ4yjYZjXz-47" value="Área" style="text;html=1;strokeColor=none;fillColor=none;align=center;verticalAlign=middle;whiteSpace=wrap;rounded=0;fontFamily=Helvetica;fontSize=11;fontColor=#000000;" parent="1" vertex="1">
                    <mxGeometry x="830" y="90" width="60" height="30" as="geometry"/>
                </mxCell>
                <mxCell id="7QRfpfaqpKaJ4yjYZjXz-53" value="" style="ellipse;whiteSpace=wrap;html=1;aspect=fixed;fontFamily=Helvetica;fontSize=11;fontColor=#000000;fillColor=#f5f5f5;" parent="1" vertex="1">
                    <mxGeometry x="845" y="425" width="80" height="80" as="geometry"/>
                </mxCell>
                <mxCell id="7QRfpfaqpKaJ4yjYZjXz-54" value="Tipo" style="text;html=1;strokeColor=none;fillColor=none;align=center;verticalAlign=middle;whiteSpace=wrap;rounded=0;fontFamily=Helvetica;fontSize=11;fontColor=#000000;" parent="1" vertex="1">
                    <mxGeometry x="855" y="450" width="60" height="30" as="geometry"/>
                </mxCell>
                <mxCell id="-BGNW_MXPj9s_1m_1hDd-1" value="1:N" style="text;html=1;strokeColor=none;fillColor=none;align=center;verticalAlign=middle;whiteSpace=wrap;rounded=0;fontFamily=Helvetica;fontSize=11;fontColor=#FFFFFF;" parent="1" vertex="1">
                    <mxGeometry x="-60" y="260" width="180" height="30" as="geometry"/>
                </mxCell>
                <mxCell id="-BGNW_MXPj9s_1m_1hDd-2" value="N:N" style="text;html=1;strokeColor=none;fillColor=none;align=center;verticalAlign=middle;whiteSpace=wrap;rounded=0;fontFamily=Helvetica;fontSize=11;fontColor=#FFFFFF;" parent="1" vertex="1">
                    <mxGeometry x="220" y="260" width="240" height="30" as="geometry"/>
                </mxCell>
                <mxCell id="-BGNW_MXPj9s_1m_1hDd-3" value="1:N" style="text;html=1;strokeColor=none;fillColor=none;align=center;verticalAlign=middle;whiteSpace=wrap;rounded=0;fontFamily=Helvetica;fontSize=11;fontColor=#FFFFFF;" parent="1" vertex="1">
                    <mxGeometry x="590" y="260" width="180" height="30" as="geometry"/>
                </mxCell>
                <mxCell id="GFVxzaxemuZA8G760R3r-2" value="" style="ellipse;whiteSpace=wrap;html=1;aspect=fixed;fontFamily=Helvetica;fontSize=11;fontColor=#FFFFFF;fillColor=#f5f5f5;" parent="1" vertex="1">
                    <mxGeometry x="739.9999999999995" y="510" width="80" height="80" as="geometry"/>
                </mxCell>
                <mxCell id="GFVxzaxemuZA8G760R3r-3" value="Telefone" style="text;html=1;strokeColor=none;fillColor=none;align=center;verticalAlign=middle;whiteSpace=wrap;rounded=0;fontFamily=Helvetica;fontSize=11;fontColor=#000000;" parent="1" vertex="1">
                    <mxGeometry x="750" y="535" width="60" height="30" as="geometry"/>
                </mxCell>
                <mxCell id="GFVxzaxemuZA8G760R3r-5" value="" style="ellipse;whiteSpace=wrap;html=1;aspect=fixed;fontFamily=Helvetica;fontSize=11;fontColor=#000000;fillColor=#f5f5f5;" parent="1" vertex="1">
                    <mxGeometry x="460" y="590" width="80" height="80" as="geometry"/>
                </mxCell>
                <mxCell id="GFVxzaxemuZA8G760R3r-6" value="E-mail" style="text;html=1;strokeColor=none;fillColor=none;align=center;verticalAlign=middle;whiteSpace=wrap;rounded=0;fontFamily=Helvetica;fontSize=11;fontColor=#000000;" parent="1" vertex="1">
                    <mxGeometry x="470" y="615" width="60" height="30" as="geometry"/>
                </mxCell>
                <mxCell id="GFVxzaxemuZA8G760R3r-8" value="" style="ellipse;whiteSpace=wrap;html=1;aspect=fixed;fontFamily=Helvetica;fontSize=11;fontColor=#000000;fillColor=#f5f5f5;" parent="1" vertex="1">
                    <mxGeometry x="-400" y="250" width="80" height="80" as="geometry"/>
                </mxCell>
                <mxCell id="GFVxzaxemuZA8G760R3r-9" value="RG" style="text;html=1;strokeColor=none;fillColor=none;align=center;verticalAlign=middle;whiteSpace=wrap;rounded=0;fontFamily=Helvetica;fontSize=11;fontColor=#000000;" parent="1" vertex="1">
                    <mxGeometry x="-390" y="275" width="60" height="30" as="geometry"/>
                </mxCell>
                <mxCell id="GFVxzaxemuZA8G760R3r-11" value="" style="ellipse;whiteSpace=wrap;html=1;aspect=fixed;fontFamily=Helvetica;fontSize=11;fontColor=#000000;fillColor=#f5f5f5;" parent="1" vertex="1">
                    <mxGeometry x="-360" y="430" width="80" height="80" as="geometry"/>
                </mxCell>
                <mxCell id="GFVxzaxemuZA8G760R3r-12" value="Convênio/&lt;br&gt;Paricular/&lt;br&gt;Sus" style="text;html=1;strokeColor=none;fillColor=none;align=center;verticalAlign=middle;whiteSpace=wrap;rounded=0;fontFamily=Helvetica;fontSize=11;fontColor=#000000;" parent="1" vertex="1">
                    <mxGeometry x="-350" y="455" width="60" height="30" as="geometry"/>
                </mxCell>
                <mxCell id="GFVxzaxemuZA8G760R3r-14" value="" style="ellipse;whiteSpace=wrap;html=1;aspect=fixed;fontFamily=Helvetica;fontSize=11;fontColor=#000000;fillColor=#f5f5f5;" parent="1" vertex="1">
                    <mxGeometry x="-270" y="565" width="80" height="80" as="geometry"/>
                </mxCell>
                <mxCell id="GFVxzaxemuZA8G760R3r-15" value="CPF" style="text;html=1;strokeColor=none;fillColor=none;align=center;verticalAlign=middle;whiteSpace=wrap;rounded=0;fontFamily=Helvetica;fontSize=11;fontColor=#000000;" parent="1" vertex="1">
                    <mxGeometry x="-260" y="590" width="60" height="30" as="geometry"/>
                </mxCell>
                <mxCell id="GFVxzaxemuZA8G760R3r-20" value="" style="ellipse;whiteSpace=wrap;html=1;aspect=fixed;fontFamily=Helvetica;fontSize=11;fontColor=#000000;fillColor=#f5f5f5;" parent="1" vertex="1">
                    <mxGeometry x="740" y="-10" width="80" height="80" as="geometry"/>
                </mxCell>
                <mxCell id="GFVxzaxemuZA8G760R3r-21" value="CPF e CNPJ" style="text;html=1;strokeColor=none;fillColor=none;align=center;verticalAlign=middle;whiteSpace=wrap;rounded=0;fontFamily=Helvetica;fontSize=11;fontColor=#000000;" parent="1" vertex="1">
                    <mxGeometry x="750" y="15" width="60" height="30" as="geometry"/>
                </mxCell>
                <mxCell id="GFVxzaxemuZA8G760R3r-23" value="" style="ellipse;whiteSpace=wrap;html=1;aspect=fixed;fontFamily=Helvetica;fontSize=11;fontColor=#000000;fillColor=#f5f5f5;" parent="1" vertex="1">
                    <mxGeometry x="285" y="320" width="80" height="80" as="geometry"/>
                </mxCell>
                <mxCell id="GFVxzaxemuZA8G760R3r-24" value="CRM" style="text;html=1;strokeColor=none;fillColor=none;align=center;verticalAlign=middle;whiteSpace=wrap;rounded=0;fontFamily=Helvetica;fontSize=11;fontColor=#000000;" parent="1" vertex="1">
                    <mxGeometry x="295" y="345" width="60" height="30" as="geometry"/>
                </mxCell>
                <mxCell id="GFVxzaxemuZA8G760R3r-26" value="" style="ellipse;whiteSpace=wrap;html=1;aspect=fixed;fontFamily=Helvetica;fontSize=11;fontColor=#000000;fillColor=#f5f5f5;" parent="1" vertex="1">
                    <mxGeometry x="950" y="90" width="80" height="80" as="geometry"/>
                </mxCell>
                <mxCell id="GFVxzaxemuZA8G760R3r-27" value="ID" style="text;html=1;strokeColor=none;fillColor=none;align=center;verticalAlign=middle;whiteSpace=wrap;rounded=0;fontFamily=Helvetica;fontSize=11;fontColor=#000000;" parent="1" vertex="1">
                    <mxGeometry x="960" y="115" width="60" height="30" as="geometry"/>
                </mxCell>
                <mxCell id="GFVxzaxemuZA8G760R3r-29" value="" style="ellipse;whiteSpace=wrap;html=1;aspect=fixed;fontFamily=Helvetica;fontSize=11;fontColor=#000000;fillColor=#f5f5f5;" parent="1" vertex="1">
                    <mxGeometry y="370" width="80" height="80" as="geometry"/>
                </mxCell>
                <mxCell id="GFVxzaxemuZA8G760R3r-30" value="ID" style="text;html=1;strokeColor=none;fillColor=none;align=center;verticalAlign=middle;whiteSpace=wrap;rounded=0;fontFamily=Helvetica;fontSize=11;fontColor=#000000;" parent="1" vertex="1">
                    <mxGeometry x="10" y="395" width="60" height="30" as="geometry"/>
                </mxCell>
                <mxCell id="y4tD8XefeHuMXNXwYBQS-2" value="" style="ellipse;whiteSpace=wrap;html=1;aspect=fixed;fontFamily=Helvetica;fontSize=11;fontColor=#000000;fillColor=#f5f5f5;" parent="1" vertex="1">
                    <mxGeometry x="1029.9999999999995" y="340" width="80" height="80" as="geometry"/>
                </mxCell>
                <mxCell id="y4tD8XefeHuMXNXwYBQS-3" value="Formação" style="text;html=1;strokeColor=none;fillColor=none;align=center;verticalAlign=middle;whiteSpace=wrap;rounded=0;fontFamily=Helvetica;fontSize=11;fontColor=#000000;" parent="1" vertex="1">
                    <mxGeometry x="1040" y="365" width="60" height="30" as="geometry"/>
                </mxCell>
            </root>
        </mxGraphModel>
    </diagram>
</mxfile>